<?xml version="1.0" encoding="UTF-8" standalone="no"?>
<!-- Created with Inkscape (http://www.inkscape.org/) -->

<svg
   width="256mm"
   height="256mm"
   viewBox="0 0 256 256"
   version="1.1"
   id="svg1"
   xml:space="preserve"
   inkscape:version="1.3.2 (091e20e, 2023-11-25, custom)"
   sodipodi:docname="enemy.svg"
   inkscape:export-filename="enemy.png"
   inkscape:export-xdpi="30.963808"
   inkscape:export-ydpi="30.963808"
   xmlns:inkscape="http://www.inkscape.org/namespaces/inkscape"
   xmlns:sodipodi="http://sodipodi.sourceforge.net/DTD/sodipodi-0.dtd"
   xmlns="http://www.w3.org/2000/svg"
   xmlns:svg="http://www.w3.org/2000/svg"><sodipodi:namedview
     id="namedview1"
     pagecolor="#ffffff"
     bordercolor="#111111"
     borderopacity="1"
     inkscape:showpageshadow="0"
     inkscape:pageopacity="0"
     inkscape:pagecheckerboard="1"
     inkscape:deskcolor="#d1d1d1"
     inkscape:document-units="mm"
     inkscape:zoom="0.72426347"
     inkscape:cx="444.58959"
     inkscape:cy="551.59485"
     inkscape:window-width="1920"
     inkscape:window-height="1009"
     inkscape:window-x="-8"
     inkscape:window-y="-8"
     inkscape:window-maximized="1"
     inkscape:current-layer="layer1" /><defs
     id="defs1" /><g
     inkscape:label="Layer 1"
     inkscape:groupmode="layer"
     id="layer1"
     style="display:inline;opacity:1"
     transform="matrix(1.2155911,0,0,1.2155911,-21.988087,-19.178332)"><path
       style="display:inline;opacity:1;fill:#953d99;fill-opacity:1;stroke:#65307a;stroke-width:3.175;stroke-linecap:round;stroke-linejoin:bevel;stroke-miterlimit:7.2;stroke-dasharray:none;stroke-opacity:1"
       d="M 121.64945,67.948338 C 101.52696,51.022139 111.28212,30.07749 119.82288,17.169742 c -3.36434,27.304869 4.82574,37.554737 20.45756,48.586714 -11.09877,-13.536731 -4.88793,-28.702945 -0.36531,-43.10701 6.81777,50.157408 28.49446,47.247231 42.74169,70.870847 -0.0833,11.089867 -4.62018,11.787847 -7.30627,16.804427 3.82586,5.21629 6.99931,9.12776 11.69004,16.0738 l -11.69004,11.32472 -4.38376,-10.22878 -10.5941,8.76753 -21.5535,-9.86347 c -9.28063,6.94096 -7.72371,13.88192 -10.95941,20.82288 8.64595,10.22866 26.53806,14.2932 25.93727,30.68635 l -6.57565,27.76383 -24.1107,13.1513 c -11.23014,-15.96353 1.09254,-33.62209 7.30627,-40.54982 l -21.5535,-9.49815 c 11.86943,23.78454 -17.158776,20.68308 -17.535059,36.89667 l -25.937268,4.01845 C 61.039934,198.88704 67.877281,188.19832 83.656825,179.369 L 70.140221,165.48708 C 52.334254,189.92765 49.505477,187.07002 19.726937,203.84502 63.604529,154.15908 71.9766,127.06756 96.808117,89.501844 Z"
       id="path4"
       sodipodi:nodetypes="cccccccccccccccccccccccc" /><path
       style="display:inline;opacity:1;fill:#f28b91;fill-opacity:1;stroke:#bc6d74;stroke-width:3.175;stroke-linecap:round;stroke-linejoin:bevel;stroke-miterlimit:7.2;stroke-dasharray:none;stroke-opacity:1"
       d="m 42.01107,80.003689 c 63.37094,53.131781 80.07399,50.164041 123.84133,82.926201 -3.41413,8.52398 -9.66902,17.04797 -14.61255,25.57195 37.16902,12.71942 26.54613,11.20295 39.81919,16.80443 l -21.55351,-23.38007 8.0369,-9.13284 c 14.00369,5.75436 28.00738,15.83025 42.01107,23.74538 -11.34907,-12.58007 -24.68167,-24.61919 -39.81918,-36.16605 l 7.67158,-6.57564 32.87823,14.24723 c -11.20418,-11.5655 -23.78054,-20.04361 -33.60886,-34.7048 -4.21268,6.47803 -7.49147,12.64476 -14.61254,20.09225 C 135.77969,131.98087 100.21769,107.64582 64.295202,84.752766 L 50.413284,71.601475 c -3.000805,2.156078 -8.150039,-2.610561 -8.402214,8.402214 z"
       id="path5"
       sodipodi:nodetypes="ccccccccccccccc" /><path
       style="fill:#953d99;fill-opacity:1;stroke:#65307a;stroke-width:3.175;stroke-linecap:round;stroke-linejoin:bevel;stroke-miterlimit:7.2;stroke-dasharray:none;stroke-opacity:1"
       d="M 102.28782,93.15498 C 98.963556,88.886009 100.18219,82.458472 94.250922,78.177122 l -2.922511,8.767527 5.978507,9.423403 3.154332,8.476968 c -5.407547,-2.54099 -13.058739,9.11132 -9.498152,13.88192 -1.461255,4.06412 -8.767528,7.4661 -13.151292,6.57565 -6.456086,-1.33728 -13.179036,-6.06082 -12.05535,-14.97787 -0.963607,-8.0369 -1.965391,-16.0738 6.575647,-24.1107 -7.209767,-10.435166 -7.583341,-24.322759 2.191882,-36.531364 8.39133,-5.154643 24.066592,-8.712554 40.184505,12.055351 3.48555,6.956461 12.06181,4.458744 9.49815,22.649446"
       id="path1"
       sodipodi:nodetypes="cccccccccccc" /><path
       style="display:inline;opacity:1;fill:#953d99;fill-opacity:1;stroke:#65307a;stroke-width:3.175;stroke-linecap:round;stroke-linejoin:bevel;stroke-miterlimit:7.2;stroke-dasharray:none;stroke-opacity:1"
       d="m 152.33579,135.89668 c -7.67615,-2.61582 -11.40847,3.63992 -14.61254,17.90037 2.24414,8.62833 5.22652,9.57304 16.43911,13.88192 5.10966,3.21871 14.91977,-4.8724 17.53506,-10.95941 2.48427,-7.21154 -7.11763,-17.92853 -19.36163,-20.82288 z"
       id="path2"
       sodipodi:nodetypes="ccccc" /><path
       style="display:inline;opacity:1;fill:#953d99;fill-opacity:1;stroke:#65307a;stroke-width:3.175;stroke-linecap:round;stroke-linejoin:bevel;stroke-miterlimit:7.2;stroke-dasharray:none;stroke-opacity:1"
       d="m 164.12686,150.98371 c 2.77735,4.28587 5.97046,4.6646 10.88787,2.97592 1.11301,-3.03425 0.0164,-4.68321 -3.9211,-11.05415 -1.48707,-3.18759 -7.83551,-6.07486 -10.48998,-5.95436 -2.87141,0.43828 -1.21973,7.4858 3.52321,14.03259 z"
       id="path3"
       sodipodi:nodetypes="ccccc" /><path
       style="display:inline;opacity:1;fill:#dbbe48;fill-opacity:1;stroke:#65307a;stroke-width:3.175;stroke-linecap:round;stroke-linejoin:bevel;stroke-miterlimit:7.2;stroke-dasharray:none;stroke-opacity:1"
       d="m 131.69228,216.6384 c 15.68153,-16.03619 21.05054,-12.96639 31.77284,-12.65747 9.61315,3.35667 9.52048,12.52062 8.26611,19.11536 -12.06317,-11.32852 -5.2227,1.6724 -40.03895,-6.45789 z"
       id="path6-2"
       sodipodi:nodetypes="cccc" /><path
       style="fill:#dbbe48;fill-opacity:1;stroke:#65307a;stroke-width:3.175;stroke-linecap:round;stroke-linejoin:bevel;stroke-miterlimit:7.2;stroke-dasharray:none;stroke-opacity:1"
       d="m 122.69998,218.79345 c 8.24961,-6.56049 19.58397,-11.09652 31.77284,-12.65747 9.61315,3.35667 9.52048,12.52062 8.26611,19.11536 -12.06317,-11.32852 -5.2227,1.6724 -40.03895,-6.45789 z"
       id="path6"
       sodipodi:nodetypes="cccc" /><path
       style="display:inline;opacity:1;fill:#dbbe48;fill-opacity:1;stroke:#65307a;stroke-width:3.175;stroke-linecap:round;stroke-linejoin:bevel;stroke-miterlimit:7.2;stroke-dasharray:none;stroke-opacity:1"
       d="m 105.94096,217.63561 c 2.4884,-1.51678 6.03653,-0.4902 10.95941,3.83579 -4.90024,-10.04328 -0.34693,-17.4968 -24.476018,-16.16513 3.08852,4.38404 3.418291,9.30203 13.516608,12.32934 z"
       id="path9"
       sodipodi:nodetypes="cccc" /><path
       style="display:inline;opacity:1;fill:#dbbe48;fill-opacity:1;stroke:#65307a;stroke-width:3.175;stroke-linecap:round;stroke-linejoin:bevel;stroke-miterlimit:7.2;stroke-dasharray:none;stroke-opacity:1"
       d="m 87.583948,218.09225 c 5.79906,0.72458 5.620078,-4.11661 17.809042,2.55719 -2.9608,-5.35959 -3.05688,-13.67454 -18.904983,-12.96863 z"
       id="path8"
       sodipodi:nodetypes="cccc" /><path
       style="fill:#dbbe48;fill-opacity:1;stroke:#65307a;stroke-width:3.175;stroke-linecap:round;stroke-linejoin:bevel;stroke-miterlimit:7.2;stroke-dasharray:none;stroke-opacity:1"
       d="m 65.482472,212.24723 c 3.595744,-1.03888 4.128484,-3.44098 15.251845,-6.02768 5.586232,1.97349 11.449477,5.08114 7.854243,13.33395 -8.345113,-4.50218 -16.712382,-0.59067 -23.106088,-7.30627 z"
       id="path7"
       sodipodi:nodetypes="cccc" /><path
       style="fill:none;fill-opacity:0;stroke:#65307a;stroke-width:3.175;stroke-linecap:round;stroke-linejoin:bevel;stroke-miterlimit:7.2;stroke-dasharray:none;stroke-opacity:1"
       d="m 82.560884,179.369 c -3.92166,-2.84426 -23.782015,-20.66747 -9.498155,-36.53136"
       id="path10"
       sodipodi:nodetypes="cc" /><path
       style="fill:none;fill-opacity:0;stroke:#65307a;stroke-width:3.175;stroke-linecap:round;stroke-linejoin:bevel;stroke-miterlimit:7.2;stroke-dasharray:none;stroke-opacity:1"
       d="m 107.40221,159.64206 3.65314,16.80443"
       id="path11" /><path
       style="fill:none;fill-opacity:0;stroke:#65307a;stroke-width:3.175;stroke-linecap:round;stroke-linejoin:bevel;stroke-miterlimit:7.2;stroke-dasharray:none;stroke-opacity:1"
       d="m 82.195571,178.63838 5.114391,6.21033"
       id="path12" /><path
       style="fill:none;fill-opacity:0;stroke:#65307a;stroke-width:3.175;stroke-linecap:round;stroke-linejoin:bevel;stroke-miterlimit:7.2;stroke-dasharray:none;stroke-opacity:1"
       d="m 94.250922,78.177122 9.498158,2.557195"
       id="path13" /><path
       style="fill:none;fill-opacity:0;stroke:#65307a;stroke-width:3.175;stroke-linecap:round;stroke-linejoin:bevel;stroke-miterlimit:7.2;stroke-dasharray:none;stroke-opacity:1"
       d="m 164.75645,133.7048 -4.01844,-16.43912 c -0.68828,-0.0118 -3.78002,3.71521 -5.84502,5.84502 -1.38531,0.0608 -1.05878,-8.15219 -1.52584,-12.52957 -2.04858,-0.0976 -4.09717,5.4297 -6.14575,8.14581 -2.74024,-5.61677 -0.20655,-13.82533 -2.57935,-15.68633 -6.48472,-3.967155 -8.93508,-1.68635 -12.42066,-0.73063"
       id="path14"
       sodipodi:nodetypes="ccccccc" /><path
       style="fill:#dbbe48;fill-opacity:1;stroke:#65307a;stroke-width:3.175;stroke-linecap:round;stroke-linejoin:bevel;stroke-miterlimit:7.2;stroke-dasharray:none;stroke-opacity:1"
       d="m 153.59559,79.710901 c 7.13666,7.001327 10.65498,15.028287 15.98247,23.197419 -4.96645,0.34395 -11.11664,3.24668 -16.25646,-5.753694 -2.163,-5.802346 -4.70605,-11.204045 0.27399,-17.443725 z"
       id="path15"
       sodipodi:nodetypes="cccc" /><path
       style="fill:#dbbe48;fill-opacity:1;stroke:#65307a;stroke-width:2.38125;stroke-linecap:round;stroke-linejoin:bevel;stroke-miterlimit:7.2;stroke-dasharray:none;stroke-opacity:1"
       d="m 151.22105,74.908102 19.27029,27.672508"
       id="path16" /><path
       style="fill:#dbbe48;fill-opacity:1;stroke:#65307a;stroke-width:3.70417;stroke-linecap:round;stroke-linejoin:bevel;stroke-miterlimit:7.2;stroke-dasharray:none;stroke-opacity:1"
       d="m 161.19465,90.871769 -2.64853,10.776751"
       id="path17" /><path
       style="fill:#dbbe48;fill-opacity:0;stroke:#65307a;stroke-width:2.91042;stroke-linecap:round;stroke-linejoin:bevel;stroke-miterlimit:7.2;stroke-dasharray:none;stroke-opacity:1"
       d="m 143.38561,162.19926 c 1.67045,-13.11539 5.95961,-17.49211 10.59409,-25.3893"
       id="path18"
       sodipodi:nodetypes="cc" /><path
       style="fill:#dbbe48;fill-opacity:0;stroke:#65307a;stroke-width:2.91042;stroke-linecap:round;stroke-linejoin:bevel;stroke-miterlimit:7.2;stroke-dasharray:none;stroke-opacity:1"
       d="m 154.89299,167.131 c 1.46647,-9.89993 2.62626,-13.67215 6.94096,-17.90037"
       id="path19"
       sodipodi:nodetypes="cc" /></g></svg>
