<?xml version="1.0" encoding="UTF-8" standalone="no"?>
<!-- Created with Inkscape (http://www.inkscape.org/) -->

<svg
   width="200mm"
   height="200mm"
   viewBox="0 0 200 200"
   version="1.1"
   id="svg1"
   inkscape:export-filename="grass_red.png"
   inkscape:export-xdpi="32.512001"
   inkscape:export-ydpi="32.512001"
   inkscape:version="1.4.2 (ebf0e940d0, 2025-05-08)"
   sodipodi:docname="grass_red.svg"
   xmlns:inkscape="http://www.inkscape.org/namespaces/inkscape"
   xmlns:sodipodi="http://sodipodi.sourceforge.net/DTD/sodipodi-0.dtd"
   xmlns="http://www.w3.org/2000/svg"
   xmlns:svg="http://www.w3.org/2000/svg">
  <sodipodi:namedview
     id="namedview1"
     pagecolor="#ffffff"
     bordercolor="#000000"
     borderopacity="0.25"
     inkscape:showpageshadow="2"
     inkscape:pageopacity="0.0"
     inkscape:pagecheckerboard="0"
     inkscape:deskcolor="#d1d1d1"
     inkscape:document-units="mm"
     inkscape:zoom="1.0690236"
     inkscape:cx="397.09134"
     inkscape:cy="471.45827"
     inkscape:window-width="2256"
     inkscape:window-height="1453"
     inkscape:window-x="0"
     inkscape:window-y="27"
     inkscape:window-maximized="1"
     inkscape:current-layer="layer1" />
  <defs
     id="defs1" />
  <g
     inkscape:label="Layer 1"
     inkscape:groupmode="layer"
     id="layer1">
    <rect
       style="fill:#acc960;stroke-width:3.19987;stroke-linecap:square;fill-opacity:1"
       id="rect1"
       width="200"
       height="200"
       x="0"
       y="0" />
    <path
       style="fill:#ed2b1d;fill-opacity:1;stroke-width:2.28356;stroke-linecap:square"
       d="m 82.373442,141.20665 -1.81772,-10.38359 17.722962,-13.23347 -2.445607,23.1867 -8.979887,4.32706 z"
       id="path7" />
    <path
       style="fill:#acc960;fill-opacity:1;stroke-width:3.19987;stroke-linecap:square"
       d="M 47.2725,88.852498 36.8775,58.162499 34.65,26.977498 l 13.365001,32.175 z"
       id="path1" />
    <path
       style="fill:#819e36;fill-opacity:1;stroke-width:3.56442;stroke-linecap:square"
       d="M 49.554711,99.906789 44.307711,78.988771 29.9475,69.905948 50.383184,77.062112 59.220235,92.475387 51.592026,58.753513 39.099789,27.225 61.325287,56.144096 73.028132,95.778233 79.379763,81.190669 82.417499,100.7325 Z"
       id="path2"
       sodipodi:nodetypes="cccccccccccc" />
    <path
       style="fill:#819e36;fill-opacity:1;stroke-width:3.19987;stroke-linecap:square"
       d="m 133.4025,129.4425 8.6625,-35.887502 24.75,-39.599999 -18.81,43.56 0.495,36.877501 11.385,-18.0675 -0.99,20.5425 H 132.66 Z"
       id="path3"
       sodipodi:nodetypes="ccccccccc" />
    <path
       style="fill:#819e36;fill-opacity:1;stroke-width:3.19987;stroke-linecap:square"
       d="M 100.2375,190.08 96.277499,166.815 77.9625,141.57 l 30.195,20.0475 9.405,28.9575 z"
       id="path4"
       sodipodi:nodetypes="cccccc" />
    <path
       style="fill:#ed2b1d;fill-opacity:1;stroke-width:2.28356;stroke-linecap:square"
       d="m 85.592954,143.92555 9.171714,-5.19642 18.413002,12.25519 -22.663101,5.47616 -7.08929,-7.00741 z"
       id="path8" />
    <path
       style="fill:#ed2b1d;fill-opacity:1;stroke-width:2.28356;stroke-linecap:square"
       d="m 83.586591,147.38375 8.637543,6.04284 -3.13866,21.89468 -14.695856,-18.10072 3.274622,-9.41482 z"
       id="path9" />
    <path
       style="fill:#ed2b1d;fill-opacity:1;stroke-width:2.28356;stroke-linecap:square"
       d="m 78.782466,145.05306 -10.420945,-1.58963 -6.88842,-21.01851 21.195139,9.71443 1.236383,9.89107 z"
       id="path6" />
    <path
       style="fill:#ed2b1d;fill-opacity:1;stroke-width:2.28356;stroke-linecap:square"
       d="m 82.526037,146.72434 -3.487389,9.94792 -21.929278,2.88702 13.462715,-19.03575 9.949232,0.61212 z"
       id="path10" />
    <circle
       style="fill:#edd91d;fill-opacity:1;stroke-width:3.19987;stroke-linecap:square"
       id="path5"
       cx="82.417496"
       cy="145.03499"
       r="8.1674995" />
    <path
       style="fill:#ed2b1d;fill-opacity:1;stroke-width:2.28356;stroke-linecap:square"
       d="m 160.83094,58.29415 -1.81772,-10.38359 17.72296,-13.23347 -2.4456,23.1867 -8.97989,4.32706 z"
       id="path15" />
    <path
       style="fill:#ed2b1d;fill-opacity:1;stroke-width:2.28356;stroke-linecap:square"
       d="m 164.05045,61.01305 9.17172,-5.19642 18.413,12.25519 -22.6631,5.47616 -7.08929,-7.00741 z"
       id="path16" />
    <path
       style="fill:#ed2b1d;fill-opacity:1;stroke-width:2.28356;stroke-linecap:square"
       d="m 162.04409,64.47125 8.63754,6.04284 -3.13866,21.89468 -14.69585,-18.10072 3.27462,-9.41482 z"
       id="path17" />
    <path
       style="fill:#ed2b1d;fill-opacity:1;stroke-width:2.28356;stroke-linecap:square"
       d="m 157.23997,62.14056 -10.42095,-1.58963 -6.88842,-21.01851 21.19514,9.71443 1.23638,9.89107 z"
       id="path18" />
    <path
       style="fill:#ed2b1d;fill-opacity:1;stroke-width:2.28356;stroke-linecap:square"
       d="m 160.98354,63.81184 -3.48739,9.94792 -21.92928,2.88702 13.46271,-19.03575 9.94924,0.61212 z"
       id="path19" />
    <circle
       style="fill:#edd91d;fill-opacity:1;stroke-width:3.19987;stroke-linecap:square"
       id="circle19"
       cx="160.87498"
       cy="62.122486"
       r="8.1674995" />
    <path
       style="fill:#ed2b1d;fill-opacity:1;stroke-width:2.28356;stroke-linecap:square"
       d="M 42.77344,32.05915 40.95572,21.67556 58.67868,8.44209 l -2.4456,23.1867 -8.97989,4.32706 z"
       id="path20" />
    <path
       style="fill:#ed2b1d;fill-opacity:1;stroke-width:2.28356;stroke-linecap:square"
       d="m 45.99295,34.77805 9.17172,-5.19642 18.413,12.25519 -22.6631,5.47616 -7.08929,-7.00741 z"
       id="path21" />
    <path
       style="fill:#ed2b1d;fill-opacity:1;stroke-width:2.28356;stroke-linecap:square"
       d="m 43.98659,38.23625 8.63754,6.04284 -3.13866,21.89468 -14.69585,-18.10072 3.27462,-9.41482 z"
       id="path22" />
    <path
       style="fill:#ed2b1d;fill-opacity:1;stroke-width:2.28356;stroke-linecap:square"
       d="M 39.18247,35.90556 28.76152,34.31593 21.8731,13.29742 l 21.19514,9.71443 1.23638,9.89107 z"
       id="path23" />
    <path
       style="fill:#ed2b1d;fill-opacity:1;stroke-width:2.28356;stroke-linecap:square"
       d="m 42.92604,37.57684 -3.48739,9.94792 -21.92928,2.88702 13.46271,-19.03575 9.94924,0.61212 z"
       id="path24" />
    <circle
       style="fill:#edd91d;fill-opacity:1;stroke-width:3.19987;stroke-linecap:square"
       id="circle24"
       cx="42.817493"
       cy="35.887486"
       r="8.1674995" />
    <path
       style="fill:#819e36;fill-opacity:1;stroke-width:3.19987;stroke-linecap:square"
       d="m 175.23,175.4775 10.6425,-21.5325 v -18.5625 l 7.1775,23.76 -2.2275,22.5225 -29.205,-0.2475 7.92,-19.0575 z"
       id="path25" />
    <path
       style="fill:#819e36;fill-opacity:1;stroke-width:3.19987;stroke-linecap:square"
       d="m 16.335,139.59 -5.445,-20.295 2.97,-16.335 4.95,16.335 15.344999,21.5325 z"
       id="path26" />
    <path
       style="fill:#819e36;fill-opacity:1;stroke-width:3.19987;stroke-linecap:square"
       d="M 95.287498,34.897499 101.7225,15.84 103.2075,4.2074999 107.6625,22.0275 105.435,35.639999 Z"
       id="path27" />
  </g>
</svg>
